# xmcd
#
# Track frame offsets:
#	150
#	15435
#	32348
#	56622
#	72821
#	94935
#	109456
#	127676
#	142858
#	169118
#	191836
#	207808
#	228317
#	244148
#	265881
#	288799
#
# Disc length: 4118 seconds
#
# Revision: 0
# Processed by: cddbd v1.5.2PL0 Copyright (c) Steve Scherf et al.
# Submitted via: EasyCDDAExtractor 12.0.1.1
#
DISCID=d5101410
DTITLE=Gil Scott-Heron - Storm Music The best of
DYEAR=2009
DGENRE=R&B
TTITLE0=The Revolution Will Not Be Televised (early version)
TTITLE1=Is That Jazz?
TTITLE2=Grandma's Hands
TTITLE3=Lady Day And John Coltrane
TTITLE4=Pieces Of A Man
TTITLE5=Or Down You Fall
TTITLE6=Get Out Of The Ghetto Blues
TTITLE7=When You Are Who You Are
TTITLE8=Inner City Blues (Make Me Wanna Holler)
TTITLE9=Storm Music
TTITLE10=Free Will
TTITLE11=The Vulture
TTITLE12=I Think I'll Call It Morning
TTITLE13=The Needle's Eye
TTITLE14=A Sign Of The Ages
TTITLE15=Save The Children
EXTD=
EXTT0=
EXTT1=
EXTT2=
EXTT3=
EXTT4=
EXTT5=
EXTT6=
EXTT7=
EXTT8=
EXTT9=
EXTT10=
EXTT11=
EXTT12=
EXTT13=
EXTT14=
EXTT15=
PLAYORDER=
